<?xml version="1.0" encoding="UTF-8"?>
<svg id="Layer_1" xmlns="http://www.w3.org/2000/svg" version="1.1" viewBox="0 0 787.41 258.91">
  <!-- Generator: Adobe Illustrator 30.1.0, SVG Export Plug-In . SVG Version: 2.1.1 Build 136)  -->
  <defs>
    <style>
      .st0 {
        fill: #c6c5c7;
      }

      .st1 {
        display: none;
      }

      .st2 {
        fill: #ffdd2e;
      }
    </style>
  </defs>
  <g class="st1">
    <path class="st0" d="M-389.59,365.84c-.82-1.35-1.23-3.67-1.23-6.95v-69.34h-16.92l-24.43,61.22-25.97-61.22h-31.5v4.06c3.32.12,5.76.43,7.32.92,1.44.41,2.5,1.21,3.2,2.4.7,1.23,1.05,3.38,1.05,6.46v69.84h8.06v-68.05l28.73,68.05h7.81l24.49-60.24v60.24h29.72v-4.06c-3.08-.04-5.37-.29-6.89-.74-1.6-.45-2.75-1.31-3.45-2.58Z"/>
    <path class="st0" d="M-332.31,288.01c-10.99,0-19.91,3.14-26.77,9.41-8.49,7.75-12.74,19.07-12.74,33.96,0,13.29,3.4,23.75,10.21,31.38,7.14,8,17.04,12,29.72,12,11.08,0,20.06-3.14,26.95-9.41,8.66-7.88,12.98-19.22,12.98-34.03,0-13.13-3.47-23.55-10.4-31.26-7.18-8.04-17.17-12.06-29.97-12.06ZM-332,367.94c-13.45,0-20.18-12.16-20.18-36.49,0-12.51,1.72-21.8,5.17-27.87,3.32-5.82,8.45-8.74,15.38-8.74s11.53,2.97,14.77,8.92c3.53,6.4,5.29,15.57,5.29,27.5,0,24.45-6.81,36.67-20.43,36.67Z"/>
    <path class="st0" d="M-209.06,347.02l-20.43-57.47h-25.41v3.75c3.57.29,6.17,1.19,7.81,2.71,1.68,1.6,3.36,4.66,5.05,9.17l3.26,8.8-11.38,33.04-20.37-57.47h-25.47v3.75c3.61.29,6.23,1.19,7.88,2.71,1.68,1.56,3.34,4.61,4.98,9.17l24.92,69.04h7.81l16.43-47.13,16.86,47.13h7.81l29.23-84.66h-9.29l-19.69,57.47Z"/>
    <path class="st0" d="M-105.63,356.37l-27.5-30.52,35.56-36.3h-11.32l-35.56,36.3v-36.3h-29.72v3.75c4.35.29,7.26.88,8.74,1.78,1.89,1.15,2.83,3.92,2.83,8.31v69.84h18.15v-36.06l32.8,36.06h26.21v-3.75c-3.98-.49-7.24-1.58-9.78-3.26-2.54-1.68-6.01-4.96-10.4-9.84Z"/>
    <path class="st0" d="M-22.5,360.31c-3.16,4.06-7.06,6.09-11.69,6.09h-13.6c-5.05,0-8-.39-8.86-1.17-.82-.7-1.23-2.67-1.23-5.91v-26.4h21.17v-6.83h-21.17v-23.69c0-2.87.29-4.61.86-5.23.45-.53,1.52-.8,3.2-.8h14.83c6.15,0,10.21.7,12.18,2.09,1.76,1.27,3.16,4.18,4.18,8.74h4.06l-1.29-17.66h-67.74v3.81c4.31.21,7.18.76,8.61,1.66,1.97,1.19,2.95,4,2.95,8.43v69.77H-18.07l3.26-20.67h-3.75c-1.23,3.4-2.54,5.99-3.94,7.75Z"/>
    <path class="st0" d="M50.84,328.86c3.49-1.52,6.07-3.2,7.75-5.05,2.75-3.04,4.12-7.12,4.12-12.24,0-8.94-3.98-15.12-11.94-18.52-5.46-2.34-12.98-3.51-22.58-3.51H-8.35v4c4.27.12,7.14.62,8.61,1.48,1.97,1.15,2.95,3.94,2.95,8.37v69.84h28.49c10.17,0,18.25-1.72,24.24-5.17,7.18-4.1,10.77-10.58,10.77-19.44,0-5.7-1.64-10.23-4.92-13.6-2.34-2.38-5.99-4.43-10.95-6.15ZM21.37,301.48c0-2.63.39-4.16,1.17-4.61.66-.37,1.97-.55,3.94-.55,6.19,0,10.62,1.19,13.29,3.57,2.71,2.38,4.06,6.09,4.06,11.14,0,4.51-1.17,8.06-3.51,10.64-2.67,2.95-6.54,4.43-11.63,4.43h-7.32v-24.61ZM41.98,363.26c-2.87,2.09-7.77,3.14-14.71,3.14-2.34,0-3.88-.35-4.61-1.05-.86-.74-1.29-2.4-1.29-4.98v-27.44h7.08c12.76,0,19.14,5.7,19.14,17.11,0,6.11-1.87,10.52-5.6,13.23Z"/>
    <path class="st0" d="M182.7,357.6l-27.44-68.05h-25.72v4.06c3.98.08,6.69.41,8.12.98,1.64.66,2.46,1.72,2.46,3.2,0,1.35-.59,3.57-1.78,6.65l-26.7,68.79h8.31l9.11-23.44h31.75l9.29,23.44h24.73v-4.06c-3.57-.12-5.97-.78-7.2-1.97-1.15-1.15-2.79-4.35-4.92-9.6ZM131.57,342.95l13.11-32.98,13.35,32.98h-26.46Z"/>
    <path class="st0" d="M254.26,363.44c-2.38,1.97-5.99,2.95-10.83,2.95h-11.32c-4.22,0-6.85-.45-7.88-1.35-.82-.74-1.23-2.13-1.23-4.18v-71.31h-29.72v4.06c4.18.08,7.01.55,8.49,1.42,2.05,1.23,3.08,4.02,3.08,8.37v69.84h56.48l3.75-21.72h-3.75c-2.46,6.11-4.82,10.09-7.08,11.94Z"/>
    <path class="st0" d="M350.06,365.84c-.78-1.35-1.17-3.67-1.17-6.95v-69.34h-18.15v36.55h-32v-36.55h-29.72v4.06c4.18.08,7.01.55,8.49,1.42,2.05,1.23,3.08,4.02,3.08,8.37v69.84h18.15v-40.3h32v40.3h29.72v-4.06c-3.12-.04-5.44-.29-6.95-.74-1.6-.45-2.75-1.31-3.45-2.58Z"/>
    <path class="st0" d="M362.3,293.61c3.32.12,5.76.43,7.32.92,1.44.41,2.5,1.21,3.2,2.4.7,1.23,1.05,3.38,1.05,6.46v69.84h18.15v-83.68h-29.72v4.06Z"/>
    <path class="st0" d="M454.91,365.84c-.74-1.31-1.11-3.63-1.11-6.95v-23.69l29.23-45.65h-10.83l-22.95,35.26-24.67-35.26h-25.72v4.06c3.61.04,6.44.9,8.49,2.58,2.22,1.76,5.35,5.6,9.41,11.51l18.89,27.5v38.03h29.72v-4.06c-3.24-.08-5.64-.37-7.2-.86-1.48-.41-2.56-1.23-3.26-2.46Z"/>
    <path class="st0" d="M550.22,357.6l-27.44-68.05h-25.72v4.06c3.98.08,6.69.41,8.12.98,1.64.66,2.46,1.72,2.46,3.2,0,1.35-.59,3.57-1.78,6.65l-26.7,68.79h8.31l9.11-23.44h31.75l9.29,23.44h24.73v-4.06c-3.57-.12-5.97-.78-7.2-1.97-1.15-1.15-2.79-4.35-4.92-9.6ZM499.08,342.95l13.11-32.98,13.35,32.98h-26.46Z"/>
    <path class="st0" d="M629.34,356.37l-27.5-30.52,35.56-36.3h-11.32l-35.56,36.3v-36.3h-29.72v3.75c4.35.29,7.26.88,8.74,1.78,1.89,1.15,2.83,3.92,2.83,8.31v69.84h18.15v-36.06l32.8,36.06h26.21v-3.75c-3.98-.49-7.24-1.58-9.78-3.26-2.54-1.68-6.01-4.96-10.4-9.84Z"/>
  </g>
  <g>
    <g>
      <path class="st2" d="M542.81,130.02c2.44.09,4.24.32,5.38.68,1.05.3,1.84.89,2.35,1.76.51.9.77,2.49.77,4.75v51.32h13.34v-61.49h-21.84v2.98Z"/>
      <path class="st2" d="M80.27,53.15c2.44.09,4.24.32,5.38.68,1.05.3,1.84.89,2.35,1.76.51.9.77,2.49.77,4.75v51.32h13.34v-61.49h-21.84v2.98Z"/>
      <path class="st2" d="M226.31,188.61v-6.7h-34.82v-54.87h-21.84v2.98c2.44.09,4.24.32,5.38.68,1.06.3,1.84.89,2.35,1.76.51.9.77,2.49.77,4.75v51.32h3.93v.08h44.23Z"/>
      <path class="st2" d="M37.12,166.42v6.37s0,.07,0,.11v.04h0c.02,5.47,1.14,9.46,3.38,11.97,2.17,2.41,5.47,3.62,9.9,3.62h111.96v-61.49h-21.84v2.98c2.44.09,4.24.32,5.38.68,1.06.3,1.84.89,2.35,1.76.51.9.77,2.49.77,4.75v44.7H53.08c-1.9,0-3.2-.81-3.89-2.44-.62-1.47-.93-4.2-.94-8.16v-15.38l-17.41,3.12v2.4c2.23.09,3.77.39,4.61.9,1.11.66,1.66,2.02,1.67,4.08Z"/>
      <path class="st2" d="M476.3,154.91c-4.13-2.38-9.45-3.57-15.96-3.57h-105l-.95,12.98h2.98c.84-3.38,1.91-5.53,3.21-6.47,1.42-.99,4.24-1.49,8.46-1.49h3.18l-.07-.04c11.33.02,84.28.04,84.71.04,3.95,0,6.84.56,8.68,1.67,3.59,2.14,5.38,6.04,5.38,11.71v12.16h-227.4v-30.35h-21.84v2.98c2.44.09,4.24.32,5.38.68,1.05.3,1.84.89,2.35,1.76.51.9.77,2.49.77,4.75v26.88h297.59v-.08h7.63v-61.49h-21.84v2.98c2.44.09,4.24.32,5.38.68,1.06.3,1.84.89,2.35,1.76.51.9.77,2.49.77,4.75v44.7h-37.44v-11.71c0-6.99-2.77-12.09-8.32-15.28Z"/>
      <path class="st2" d="M221.26,208.75c1.86,0,3.45-.65,4.77-1.94,1.29-1.32,1.94-2.91,1.94-4.77s-.65-3.48-1.94-4.77c-1.29-1.29-2.93-1.94-4.9-1.94-1.83,0-3.38.65-4.65,1.94-1.29,1.32-1.94,2.93-1.94,4.81s.65,3.4,1.94,4.69c1.32,1.32,2.91,1.98,4.77,1.98Z"/>
      <path class="st2" d="M241.61,206.81c1.29-1.32,1.94-2.91,1.94-4.77s-.65-3.48-1.94-4.77c-1.29-1.29-2.93-1.94-4.9-1.94-1.83,0-3.38.65-4.65,1.94-1.29,1.32-1.94,2.93-1.94,4.81s.65,3.4,1.94,4.69c1.32,1.32,2.91,1.98,4.77,1.98s3.45-.65,4.77-1.94Z"/>
      <path class="st2" d="M91.26,164.04c.96,0,4.2,0,12.71-.1h4.59v-4.36c0-2.29-.86-4.02-2.77-5.16-1.34-.77-3.16-1.15-5.36-1.15h-3.47v1.63c3.44,0,2.03.1,2.32.1,1.34,0,2.29.19,2.87.48,1.24.77,1.82,2.1,1.82,4.02v2.74h-12.71v1.82Z"/>
      <path class="st2" d="M91.26,150.8v4.13h4.61v-4.28c0-1.91.6-3.22,1.81-3.94.5-.31,1.95-.48,3.2-.54,1.26.06,2.61.21,2.99.48.44.31.8,1.04,1.08,2.18h1.01l-.32-4.37h-6.2c-2.19,0-3.98.4-5.37,1.2-1.87,1.08-2.8,2.79-2.8,5.15Z"/>
    </g>
    <path class="st2" d="M344.9,80.02c.51.9.77,2.49.77,4.75v26.88h13.34c5.34-.03,80.07.33,82.9,0h1.48v-18.04c0-6.99-2.77-12.09-8.32-15.28-4.13-2.38-9.45-3.57-15.96-3.57h-27.25v4.97c10.36,0,23.12.05,23.77.05,3.95,0,6.84.56,8.68,1.67,3.59,2.14,5.38,6.04,5.38,11.71v11.74h-70.68v-30.31h-21.84v2.98c2.44.09,4.24.32,5.38.68,1.06.3,1.84.89,2.35,1.76Z"/>
    <path class="st2" d="M264.46,89.55v6.37s0,.07,0,.11v.04h0c.02,5.47,1.14,9.46,3.38,11.97,2.17,2.41,5.47,3.62,9.9,3.62h64.05v-6.62h-61.38c-1.9,0-3.2-.81-3.89-2.44-.62-1.47-.93-4.2-.94-8.16v-15.38l-17.41,3.12v2.4c2.23.09,3.77.39,4.61.9,1.11.66,1.66,2.02,1.67,4.08Z"/>
    <path class="st2" d="M388.67,68.56c0-5.67,1.79-9.57,5.38-11.71,1.84-1.12,4.73-1.67,8.68-1.67.43,0-15.82-.02-4.5-.04l-.07.04h3.18c4.22,0,7.04.5,8.46,1.49,1.3.93,2.37,3.09,3.21,6.47h2.98l-.95-12.98h-15.79c-6.51,0-11.83,1.19-15.96,3.57-5.55,3.2-8.32,8.29-8.32,15.28v10.7h13.7v-11.16Z"/>
    <path class="st2" d="M557.82,78.33c-4.13-2.38-9.45-3.57-15.96-3.57h-28.31v2.98c3.07.06,5.15.42,6.24,1.09,1.51.87,2.26,2.92,2.26,6.15v20.05h-18.71v-30.27h-13.43c-5.15.09-10.54.34-12.26.54-5.49.63-9.72,2.16-12.71,4.57-3.86,3.1-5.79,7.42-5.79,12.93v18.86h30.69c-.15,4.43-.96,7.69-2.5,9.62-1.49,1.89-4.22,3.11-8.19,3.66v4.48c4-.22,7.06-.55,9.17-.98,2.87-.55,5.29-1.49,7.26-2.84,4.33-2.96,6.74-7.67,7.44-13.93h32.36v-28.44c0-1.66.18-2.68.54-3.07.51-.24,1.33-.36,2.44-.36,3.95,0,6.84.56,8.68,1.67,3.59,2.14,5.38,6.04,5.38,11.71v11.87h-13.92v6.62h13.92v.02h13.7v-18.06c0-6.99-2.77-12.09-8.32-15.28ZM489.92,101.64h-.01c0,1.67-.18,2.7-.54,3.09-.31.15-9.27.25-16.5.31v-11.78c0-8.86,4.39-13.29,13.16-13.29h3.9v21.68Z"/>
    <path class="st2" d="M124.53,67.32c1.29-1.32,1.94-2.91,1.94-4.77s-.65-3.48-1.94-4.77c-1.29-1.29-2.93-1.94-4.9-1.94-1.83,0-3.38.65-4.65,1.94-1.29,1.32-1.94,2.93-1.94,4.81s.65,3.4,1.94,4.69c1.32,1.32,2.91,1.98,4.77,1.98s3.45-.65,4.77-1.94Z"/>
    <path class="st2" d="M313.7,129.6c1.29-1.32,1.94-2.91,1.94-4.77s-.65-3.48-1.94-4.77c-1.29-1.29-2.93-1.94-4.9-1.94-1.83,0-3.38.65-4.65,1.94-1.29,1.32-1.94,2.93-1.94,4.81s.65,3.4,1.94,4.69c1.32,1.32,2.91,1.98,4.77,1.98s3.45-.65,4.77-1.94Z"/>
    <path class="st2" d="M221.25,104.78h-31.32v-21.82c0-1.66.18-2.68.54-3.07.51-.24,18.61-.36,19.72-.36,3.95,0,6.84.56,8.68,1.67,3.3,1.97,5.08,5.44,5.34,10.4h13.67c-.44-6.09-3.18-10.6-8.25-13.52-4.13-2.38-9.45-3.57-15.96-3.57h-45.59v2.98c3.07.06,5.15.42,6.24,1.09,1.51.87,2.26,2.92,2.26,6.15v20.05h-50.3v-30.27h-13.43v26.88h-.01s-.05,10.02-.05,10.02c-.15,4.43-.96,7.69-2.5,9.62-1.49,1.89-4.22,3.11-8.19,3.66v4.48c4-.22,7.06-.55,9.17-.98,2.87-.55,5.29-1.49,7.26-2.84,4.33-2.96,6.74-7.67,7.44-13.93h98.28v.02h13.7v-6.65h-16.7Z"/>
    <path class="st2" d="M63.56,104.78h-12.52v-21.82c0-1.66.18-2.68.54-3.07.51-.24-.2-.36.92-.36,3.95,0,6.84.56,8.68,1.67,3.3,1.97,5.08,5.44,5.34,10.4h13.67c-.44-6.09-3.18-10.6-8.25-13.52-4.13-2.38-9.45-3.57-15.96-3.57h-26.78v2.98c3.07.06,5.15.42,6.24,1.09,1.51.87,2.26,2.92,2.26,6.15v20.05h-10.02v6.62h38.88v.02h13.7v-6.65h-16.7Z"/>
  </g>
  <g>
    <path class="st2" d="M687.97,104c5.41,5.87,14.19,15.27,19.27,20.52,28.39,29.36,13.24,50.09,13.24,50.09,19.76-26.99.62-49.17-7.65-57.66-6.52-6.7-17.6-18.15-24.07-25.14-11.81-12.76-6.22-27-6.22-27-12.16,20.27,1.11,34.5,5.44,39.2"/>
    <path class="st2" d="M638.95,18.39c-1.36,3.2-2.22,6.88-2.42,10.31-.21,3.65-.3,7.99.78,11.58,1.13,3.73,3.99,7.05,6.61,9.83,5.56,5.89,12.4,10.38,18.07,16.14,2.84,2.88,5.31,6.11,7.43,9.57,3.3,5.38,3.99,12.31,3.99,12.31-.06.49-.13.98-.21,1.46-.65,4.09-1.78,8.11-3.35,11.94-3.28,8-8.46,14.45-14.64,20.39-13.29,12.76-28.49,24.01-35.89,41.44-4.66,10.97-6.67,21.11-5.28,32.25,2.47,19.88,8.32,28.64,17.86,32.8,7.28,3.17,14.19,2.04,21.24-1.15,7.54-3.41,13.94-8.06,19.94-13.7,3.27-3.08,9.13-8.93,14.8-10.63-.23.48-2.01,4.26-2.39,5.22-1.19,3.01-4.79,8.67-2.82,10.94,5.73,6.59,16.58-10.43,18.56-12.93,2.5-3.17,5.38-6.41,9.17-8,4.23-1.77,8.25-.5,12.69.63,7.03,1.79,14.41,1.21,20.99-2.13,6.02-3.06,11.51-6.41,15.64-20.12-1.35,4.08-11,10.25-22.23,10.73-7.37.32-14.3-2.11-21.38-4.54-9.26-3.18-17.89-6.84-27.67-3.43-8.16,2.84-14.25,9.23-18.3,16.68-.09.17-3.89,7.24-4.02,8.76,4.33-8.01,11.27-14.63,20.23-17.01,8.25-2.19,16.1.57,23.82,3.39-4.35,3.31-7.93,8.34-11.01,12.37-2.11,2.76-5.29,8-9.05,8.49-1.82.23-3.08-1.01-3.46-2.72-.16-.7.14-2.92.39-3.42,0,0,0,0,0,0,.51-1.13.97-1.98,1.46-3.06,2.59-.63,5.13-.35,7.33,1.54-.52-.45-.44-4.04-.47-4.97-.03-.89.13-4.36-.57-4.96-6.31-5.39-15.7,2.75-20.26,6.93-5.54,5.07-10.71,9.78-17.29,13.44-6.35,3.53-13.45,6.73-20.86,5.39-8.17-1.48-13.69-6.6-17.2-13.98-1.67-3.51-2.79-7.2-3.6-10.98,0-.63,0-1.1.03-1.64.07-2.17.28-4.33.63-6.48,1.35-8.31,4.73-16.18,9.29-23.22,10.01-15.44,26.02-24.97,37.49-39.03,5.9-7.22,9.82-16.05,11.23-25.26,2.24-14.55.29-23.37-2.51-29.96-2.5-5.88-6.61-10.9-11.23-15.23-4.43-4.15-9.35-7.73-13.76-11.9-3.61-3.41-7.5-7.5-8.89-12.37.5-1.6,1.22-3.13,2.22-4.45,1.84-2.42,4.26-4.44,6.45-6.55l.49-9.98c-2.89,2.77-6.47,5.51-8.08,9.29"/>
    <path class="st2" d="M662.66,141.03c-8.8,6.28-14.28,9.83-18.28,12.57-4,2.74-12.82,7.56-12.11,22.06.57,11.66.8,13.48.8,13.48,0,0,6.17-1.37,12.91-5.71,6.74-4.34,22.51-16.46,29.25-22.4,6.74-5.94,12.49-12.91,22.02-8.29,0,0-4.08,2-8.65,6.34-4.57,4.34-21.68,21.08-28.68,26.06-7.2,5.12-15.77,9.84-30.51,9.03-12.02-.66-23.2-11.1-27.54-22.28-5.56-14.35-2.57-32.68,1.52-41.25,0,0-8.94,13.26-6.77,36.11,2.17,22.85,21.26,35.62,32.57,37.14,10.69,1.44,21.71,0,36-12,14.29-12,25.04-29.14,35.26-29.83,0,0,2.22-9.26-.86-16-3.09-6.74-10.74-7.31-19.54.69-8.8,8-31.72,28.33-45.55,31.76,0,0-.73-6.96,4.64-11.19,5.37-4.23,18.63-13.03,23.43-16.68,4.8-3.66,18.17-12.63,15.54-34.28,0,0,.21,13.52-15.43,24.68"/>
    <rect class="st2" x="668.59" y="222.95" width="10.49" height="10.49" transform="translate(35.98 543.27) rotate(-45)"/>
    <rect class="st2" x="668.59" y="237.14" width="10.49" height="10.49" transform="translate(25.94 547.42) rotate(-45)"/>
    <path class="st2" d="M672.37,112.4c5.51,5.77,14.47,15,19.64,20.16,28.93,28.82,14.18,49.83,14.18,49.83,19.25-27.36-.3-49.17-8.73-57.51-6.65-6.58-17.93-17.82-24.54-24.69-12.04-12.54-6.72-26.88-6.72-26.88-11.78,20.49,1.75,34.47,6.17,39.09"/>
  </g>
</svg>