<?xml version="1.0" encoding="UTF-8"?>
<svg id="Layer_1" xmlns="http://www.w3.org/2000/svg" version="1.1" viewBox="0 0 163.46 240.71">
  <!-- Generator: Adobe Illustrator 30.1.0, SVG Export Plug-In . SVG Version: 2.1.1 Build 136)  -->
  <defs>
    <style>
      .st0 {
        fill: #c6c5c7;
      }

      .st1 {
        fill: #222147;
      }

      .st2 {
        display: none;
      }
    </style>
  </defs>
  <g class="st2">
    <path class="st0" d="M-985.86,356.74c-.82-1.35-1.23-3.67-1.23-6.95v-69.34h-16.92l-24.43,61.22-25.97-61.22h-31.5v4.06c3.32.12,5.76.43,7.32.92,1.44.41,2.5,1.21,3.2,2.4.7,1.23,1.05,3.38,1.05,6.46v69.84h8.06v-68.05l28.73,68.05h7.81l24.49-60.24v60.24h29.72v-4.06c-3.08-.04-5.37-.29-6.89-.74-1.6-.45-2.75-1.31-3.45-2.58Z"/>
    <path class="st0" d="M-928.58,278.91c-10.99,0-19.91,3.14-26.77,9.41-8.49,7.75-12.74,19.07-12.74,33.96,0,13.29,3.4,23.75,10.21,31.38,7.14,8,17.04,12,29.72,12,11.08,0,20.06-3.14,26.95-9.41,8.66-7.88,12.98-19.22,12.98-34.03,0-13.13-3.47-23.55-10.4-31.26-7.18-8.04-17.17-12.06-29.97-12.06ZM-928.27,358.83c-13.45,0-20.18-12.16-20.18-36.49,0-12.51,1.72-21.8,5.17-27.87,3.32-5.82,8.45-8.74,15.38-8.74s11.53,2.97,14.77,8.92c3.53,6.4,5.29,15.57,5.29,27.5,0,24.45-6.81,36.67-20.43,36.67Z"/>
    <path class="st0" d="M-805.33,337.91l-20.43-57.47h-25.41v3.75c3.57.29,6.17,1.19,7.81,2.71,1.68,1.6,3.36,4.66,5.05,9.17l3.26,8.8-11.38,33.04-20.37-57.47h-25.47v3.75c3.61.29,6.23,1.19,7.88,2.71,1.68,1.56,3.34,4.61,4.98,9.17l24.92,69.04h7.81l16.43-47.13,16.86,47.13h7.81l29.23-84.66h-9.29l-19.69,57.47Z"/>
    <path class="st0" d="M-701.9,347.27l-27.5-30.52,35.56-36.3h-11.32l-35.56,36.3v-36.3h-29.72v3.75c4.35.29,7.26.88,8.74,1.78,1.89,1.15,2.83,3.92,2.83,8.31v69.84h18.15v-36.06l32.8,36.06h26.21v-3.75c-3.98-.49-7.24-1.58-9.78-3.26-2.54-1.68-6.01-4.96-10.4-9.84Z"/>
    <path class="st0" d="M-618.77,351.2c-3.16,4.06-7.06,6.09-11.69,6.09h-13.6c-5.05,0-8-.39-8.86-1.17-.82-.7-1.23-2.67-1.23-5.91v-26.4h21.17v-6.83h-21.17v-23.69c0-2.87.29-4.61.86-5.23.45-.53,1.52-.8,3.2-.8h14.83c6.15,0,10.21.7,12.18,2.09,1.76,1.27,3.16,4.18,4.18,8.74h4.06l-1.29-17.66h-67.74v3.81c4.31.21,7.18.76,8.61,1.66,1.97,1.19,2.95,4,2.95,8.43v69.77h57.96l3.26-20.67h-3.75c-1.23,3.4-2.54,5.99-3.94,7.75Z"/>
    <path class="st0" d="M-545.43,319.76c3.49-1.52,6.07-3.2,7.75-5.05,2.75-3.04,4.12-7.12,4.12-12.24,0-8.94-3.98-15.12-11.94-18.52-5.46-2.34-12.98-3.51-22.58-3.51h-36.55v4c4.27.12,7.14.62,8.61,1.48,1.97,1.15,2.95,3.94,2.95,8.37v69.84h28.49c10.17,0,18.25-1.72,24.24-5.17,7.18-4.1,10.77-10.58,10.77-19.44,0-5.7-1.64-10.23-4.92-13.6-2.34-2.38-5.99-4.43-10.95-6.15ZM-574.9,292.38c0-2.63.39-4.16,1.17-4.61.66-.37,1.97-.55,3.94-.55,6.19,0,10.62,1.19,13.29,3.57,2.71,2.38,4.06,6.09,4.06,11.14,0,4.51-1.17,8.06-3.51,10.64-2.67,2.95-6.54,4.43-11.63,4.43h-7.32v-24.61ZM-554.29,354.16c-2.87,2.09-7.77,3.14-14.71,3.14-2.34,0-3.88-.35-4.61-1.05-.86-.74-1.29-2.4-1.29-4.98v-27.44h7.08c12.76,0,19.14,5.7,19.14,17.11,0,6.11-1.87,10.52-5.6,13.23Z"/>
    <path class="st0" d="M-413.57,348.5l-27.44-68.05h-25.72v4.06c3.98.08,6.69.41,8.12.98,1.64.66,2.46,1.72,2.46,3.2,0,1.35-.59,3.57-1.78,6.65l-26.7,68.79h8.31l9.11-23.44h31.75l9.29,23.44h24.73v-4.06c-3.57-.12-5.97-.78-7.2-1.97-1.15-1.15-2.79-4.35-4.92-9.6ZM-464.7,333.85l13.11-32.98,13.35,32.98h-26.46Z"/>
    <path class="st0" d="M-342.01,354.34c-2.38,1.97-5.99,2.95-10.83,2.95h-11.32c-4.22,0-6.85-.45-7.88-1.35-.82-.74-1.23-2.13-1.23-4.18v-71.31h-29.72v4.06c4.18.08,7.01.55,8.49,1.42,2.05,1.23,3.08,4.02,3.08,8.37v69.84h56.48l3.75-21.72h-3.75c-2.46,6.11-4.82,10.09-7.08,11.94Z"/>
    <path class="st0" d="M-246.21,356.74c-.78-1.35-1.17-3.67-1.17-6.95v-69.34h-18.15v36.55h-32v-36.55h-29.72v4.06c4.18.08,7.01.55,8.49,1.42,2.05,1.23,3.08,4.02,3.08,8.37v69.84h18.15v-40.3h32v40.3h29.72v-4.06c-3.12-.04-5.44-.29-6.95-.74-1.6-.45-2.75-1.31-3.45-2.58Z"/>
    <path class="st0" d="M-233.97,284.51c3.32.12,5.76.43,7.32.92,1.44.41,2.5,1.21,3.2,2.4.7,1.23,1.05,3.38,1.05,6.46v69.84h18.15v-83.68h-29.72v4.06Z"/>
    <path class="st0" d="M-141.37,356.74c-.74-1.31-1.11-3.63-1.11-6.95v-23.69l29.23-45.65h-10.83l-22.95,35.26-24.67-35.26h-25.72v4.06c3.61.04,6.44.9,8.49,2.58,2.22,1.76,5.35,5.6,9.41,11.51l18.89,27.5v38.03h29.72v-4.06c-3.24-.08-5.64-.37-7.2-.86-1.48-.41-2.56-1.23-3.26-2.46Z"/>
    <path class="st0" d="M-46.06,348.5l-27.44-68.05h-25.72v4.06c3.98.08,6.69.41,8.12.98,1.64.66,2.46,1.72,2.46,3.2,0,1.35-.59,3.57-1.78,6.65l-26.7,68.79h8.31l9.11-23.44h31.75l9.29,23.44h24.73v-4.06c-3.57-.12-5.97-.78-7.2-1.97-1.15-1.15-2.79-4.35-4.92-9.6ZM-97.19,333.85l13.11-32.98,13.35,32.98h-26.46Z"/>
    <path class="st0" d="M33.07,347.27l-27.5-30.52,35.56-36.3h-11.32l-35.56,36.3v-36.3h-29.72v3.75c4.35.29,7.26.88,8.74,1.78,1.89,1.15,2.83,3.92,2.83,8.31v69.84H-5.75v-36.06l32.8,36.06h26.21v-3.75c-3.98-.49-7.24-1.58-9.78-3.26-2.54-1.68-6.01-4.96-10.4-9.84Z"/>
  </g>
  <g>
    <path class="st1" d="M91.7,94.9c5.41,5.87,14.19,15.27,19.27,20.52,28.39,29.36,13.24,50.09,13.24,50.09,19.76-26.99.62-49.17-7.65-57.66-6.52-6.7-17.6-18.15-24.07-25.14-11.81-12.76-6.22-27-6.22-27-12.16,20.27,1.11,34.5,5.44,39.2"/>
    <path class="st1" d="M42.68,9.29c-1.36,3.2-2.22,6.88-2.42,10.31-.21,3.65-.3,7.99.78,11.58,1.13,3.73,3.99,7.05,6.61,9.83,5.56,5.89,12.4,10.38,18.07,16.14,2.84,2.88,5.31,6.11,7.43,9.57,3.3,5.38,3.99,12.31,3.99,12.31-.06.49-.13.98-.21,1.46-.65,4.09-1.78,8.11-3.35,11.94-3.28,8-8.46,14.45-14.64,20.39-13.29,12.76-28.49,24.01-35.89,41.44-4.66,10.97-6.67,21.11-5.28,32.25,2.47,19.88,8.32,28.64,17.86,32.8,7.28,3.17,14.19,2.04,21.24-1.15,7.54-3.41,13.94-8.06,19.94-13.7,3.27-3.08,9.13-8.93,14.8-10.63-.23.48-2.01,4.26-2.39,5.22-1.19,3.01-4.79,8.67-2.82,10.94,5.73,6.59,16.58-10.43,18.56-12.93,2.5-3.17,5.38-6.41,9.17-8,4.23-1.77,8.25-.5,12.69.63,7.03,1.79,14.41,1.21,20.99-2.13,6.02-3.06,11.51-6.41,15.64-20.12-1.35,4.08-11,10.25-22.23,10.73-7.37.32-14.3-2.11-21.38-4.54-9.26-3.18-17.89-6.84-27.67-3.43-8.16,2.84-14.25,9.23-18.3,16.68-.09.17-3.89,7.24-4.02,8.76,4.33-8.01,11.27-14.63,20.23-17.01,8.25-2.19,16.1.57,23.82,3.39-4.35,3.31-7.93,8.34-11.01,12.37-2.11,2.76-5.29,8-9.05,8.49-1.82.23-3.08-1.01-3.46-2.72-.16-.7.14-2.92.39-3.42,0,0,0,0,0,0,.51-1.13.97-1.98,1.46-3.06,2.59-.63,5.13-.35,7.33,1.54-.52-.45-.44-4.04-.47-4.97-.03-.89.13-4.36-.57-4.96-6.31-5.39-15.7,2.75-20.26,6.93-5.54,5.07-10.71,9.78-17.29,13.44-6.35,3.53-13.45,6.73-20.86,5.39-8.17-1.48-13.69-6.6-17.2-13.98-1.67-3.51-2.79-7.2-3.6-10.98,0-.63,0-1.1.03-1.64.07-2.17.28-4.33.63-6.48,1.35-8.31,4.73-16.18,9.29-23.22,10.01-15.44,26.02-24.97,37.49-39.03,5.9-7.22,9.82-16.05,11.23-25.26,2.24-14.55.29-23.37-2.51-29.96-2.5-5.88-6.61-10.9-11.23-15.23-4.43-4.15-9.35-7.73-13.76-11.9-3.61-3.41-7.5-7.5-8.89-12.37.5-1.6,1.22-3.13,2.22-4.45,1.84-2.42,4.26-4.44,6.45-6.55l.49-9.98c-2.89,2.77-6.47,5.51-8.08,9.29"/>
    <path class="st1" d="M66.39,131.93c-8.8,6.28-14.28,9.83-18.28,12.57-4,2.74-12.82,7.56-12.11,22.06.57,11.66.8,13.48.8,13.48,0,0,6.17-1.37,12.91-5.71,6.74-4.34,22.51-16.46,29.25-22.4,6.74-5.94,12.49-12.91,22.02-8.29,0,0-4.08,2-8.65,6.34-4.57,4.34-21.68,21.08-28.68,26.06-7.2,5.12-15.77,9.84-30.51,9.03-12.02-.66-23.2-11.1-27.54-22.28-5.56-14.35-2.57-32.68,1.52-41.25,0,0-8.94,13.26-6.77,36.11,2.17,22.85,21.26,35.62,32.57,37.14,10.69,1.44,21.71,0,36-12,14.29-12,25.04-29.14,35.26-29.83,0,0,2.22-9.26-.86-16-3.09-6.74-10.74-7.31-19.54.69-8.8,8-31.72,28.33-45.55,31.76,0,0-.73-6.96,4.64-11.19,5.37-4.23,18.63-13.03,23.43-16.68,4.8-3.66,18.17-12.63,15.54-34.28,0,0,.21,13.52-15.43,24.68"/>
    <rect class="st1" x="72.32" y="213.85" width="10.49" height="10.49" transform="translate(-132.2 119.01) rotate(-45)"/>
    <rect class="st1" x="72.32" y="228.04" width="10.49" height="10.49" transform="translate(-142.23 123.16) rotate(-45)"/>
    <path class="st1" d="M76.1,103.3c5.51,5.77,14.47,15,19.64,20.16,28.93,28.82,14.18,49.83,14.18,49.83,19.25-27.36-.3-49.17-8.73-57.51-6.65-6.58-17.93-17.82-24.54-24.69-12.04-12.54-6.72-26.88-6.72-26.88-11.78,20.49,1.75,34.47,6.17,39.09"/>
  </g>
</svg>