<?xml version="1.0" encoding="UTF-8"?>
<svg id="Layer_1" xmlns="http://www.w3.org/2000/svg" version="1.1" viewBox="0 0 563.29 695.65">
  <!-- Generator: Adobe Illustrator 30.1.0, SVG Export Plug-In . SVG Version: 2.1.1 Build 136)  -->
  <defs>
    <style>
      .st0 {
        fill: #c6c5c7;
      }

      .st1 {
        display: none;
      }

      .st2 {
        fill: #ffdd2e;
      }
    </style>
  </defs>
  <g class="st1">
    <path class="st0" d="M-491.24,622.08c-.82-1.35-1.23-3.67-1.23-6.95v-69.34h-16.92l-24.43,61.22-25.97-61.22h-31.5v4.06c3.32.12,5.76.43,7.32.92,1.44.41,2.5,1.21,3.2,2.4.7,1.23,1.05,3.38,1.05,6.46v69.84h8.06v-68.05l28.73,68.05h7.81l24.49-60.24v60.24h29.72v-4.06c-3.08-.04-5.37-.29-6.89-.74-1.6-.45-2.75-1.31-3.45-2.58Z"/>
    <path class="st0" d="M-433.96,544.24c-10.99,0-19.91,3.14-26.77,9.41-8.49,7.75-12.74,19.07-12.74,33.96,0,13.29,3.4,23.75,10.21,31.38,7.14,8,17.04,12,29.72,12,11.08,0,20.06-3.14,26.95-9.41,8.66-7.88,12.98-19.22,12.98-34.03,0-13.13-3.47-23.55-10.4-31.26-7.18-8.04-17.17-12.06-29.97-12.06ZM-433.65,624.17c-13.45,0-20.18-12.16-20.18-36.49,0-12.51,1.72-21.8,5.17-27.87,3.32-5.82,8.45-8.74,15.38-8.74s11.53,2.97,14.77,8.92c3.53,6.4,5.29,15.57,5.29,27.5,0,24.45-6.81,36.67-20.43,36.67Z"/>
    <path class="st0" d="M-310.71,603.25l-20.43-57.47h-25.41v3.75c3.57.29,6.17,1.19,7.81,2.71,1.68,1.6,3.36,4.66,5.05,9.17l3.26,8.8-11.38,33.04-20.37-57.47h-25.47v3.75c3.61.29,6.23,1.19,7.88,2.71,1.68,1.56,3.34,4.61,4.98,9.17l24.92,69.04h7.81l16.43-47.13,16.86,47.13h7.81l29.23-84.66h-9.29l-19.69,57.47Z"/>
    <path class="st0" d="M-207.28,612.6l-27.5-30.52,35.56-36.3h-11.32l-35.56,36.3v-36.3h-29.72v3.75c4.35.29,7.26.88,8.74,1.78,1.89,1.15,2.83,3.92,2.83,8.31v69.84h18.15v-36.06l32.8,36.06h26.21v-3.75c-3.98-.49-7.24-1.58-9.78-3.26-2.54-1.68-6.01-4.96-10.4-9.84Z"/>
    <path class="st0" d="M-124.16,616.54c-3.16,4.06-7.06,6.09-11.69,6.09h-13.6c-5.05,0-8-.39-8.86-1.17-.82-.7-1.23-2.67-1.23-5.91v-26.4h21.17v-6.83h-21.17v-23.69c0-2.87.29-4.61.86-5.23.45-.53,1.52-.8,3.2-.8h14.83c6.15,0,10.21.7,12.18,2.09,1.76,1.27,3.16,4.18,4.18,8.74h4.06l-1.29-17.66h-67.74v3.81c4.31.21,7.18.76,8.61,1.66,1.97,1.19,2.95,4,2.95,8.43v69.77h57.96l3.26-20.67h-3.75c-1.23,3.4-2.54,5.99-3.94,7.75Z"/>
    <path class="st0" d="M-50.81,585.1c3.49-1.52,6.07-3.2,7.75-5.05,2.75-3.04,4.12-7.12,4.12-12.24,0-8.94-3.98-15.12-11.94-18.52-5.46-2.34-12.98-3.51-22.58-3.51h-36.55v4c4.27.12,7.14.62,8.61,1.48,1.97,1.15,2.95,3.94,2.95,8.37v69.84h28.49c10.17,0,18.25-1.72,24.24-5.17,7.18-4.1,10.77-10.58,10.77-19.44,0-5.7-1.64-10.23-4.92-13.6-2.34-2.38-5.99-4.43-10.95-6.15ZM-80.28,557.72c0-2.63.39-4.16,1.17-4.61.66-.37,1.97-.55,3.94-.55,6.19,0,10.62,1.19,13.29,3.57,2.71,2.38,4.06,6.09,4.06,11.14,0,4.51-1.17,8.06-3.51,10.64-2.67,2.95-6.54,4.43-11.63,4.43h-7.32v-24.61ZM-59.67,619.49c-2.87,2.09-7.77,3.14-14.71,3.14-2.34,0-3.88-.35-4.61-1.05-.86-.74-1.29-2.4-1.29-4.98v-27.44h7.08c12.76,0,19.14,5.7,19.14,17.11,0,6.11-1.87,10.52-5.6,13.23Z"/>
    <path class="st0" d="M81.05,613.83l-27.44-68.05h-25.72v4.06c3.98.08,6.69.41,8.12.98,1.64.66,2.46,1.72,2.46,3.2,0,1.35-.59,3.57-1.78,6.65l-26.7,68.79h8.31l9.11-23.44h31.75l9.29,23.44h24.73v-4.06c-3.57-.12-5.97-.78-7.2-1.97-1.15-1.15-2.79-4.35-4.92-9.6ZM29.91,599.19l13.11-32.98,13.35,32.98h-26.46Z"/>
    <path class="st0" d="M152.6,619.68c-2.38,1.97-5.99,2.95-10.83,2.95h-11.32c-4.22,0-6.85-.45-7.88-1.35-.82-.74-1.23-2.13-1.23-4.18v-71.31h-29.72v4.06c4.18.08,7.01.55,8.49,1.42,2.05,1.23,3.08,4.02,3.08,8.37v69.84h56.48l3.75-21.72h-3.75c-2.46,6.11-4.82,10.09-7.08,11.94Z"/>
    <path class="st0" d="M248.41,622.08c-.78-1.35-1.17-3.67-1.17-6.95v-69.34h-18.15v36.55h-32v-36.55h-29.72v4.06c4.18.08,7.01.55,8.49,1.42,2.05,1.23,3.08,4.02,3.08,8.37v69.84h18.15v-40.3h32v40.3h29.72v-4.06c-3.12-.04-5.44-.29-6.95-.74-1.6-.45-2.75-1.31-3.45-2.58Z"/>
    <path class="st0" d="M260.65,549.84c3.32.12,5.76.43,7.32.92,1.44.41,2.5,1.21,3.2,2.4.7,1.23,1.05,3.38,1.05,6.46v69.84h18.15v-83.68h-29.72v4.06Z"/>
    <path class="st0" d="M353.25,622.08c-.74-1.31-1.11-3.63-1.11-6.95v-23.69l29.23-45.65h-10.83l-22.95,35.26-24.67-35.26h-25.72v4.06c3.61.04,6.44.9,8.49,2.58,2.22,1.76,5.35,5.6,9.41,11.51l18.89,27.5v38.03h29.72v-4.06c-3.24-.08-5.64-.37-7.2-.86-1.48-.41-2.56-1.23-3.26-2.46Z"/>
    <path class="st0" d="M448.56,613.83l-27.44-68.05h-25.72v4.06c3.98.08,6.69.41,8.12.98,1.64.66,2.46,1.72,2.46,3.2,0,1.35-.59,3.57-1.78,6.65l-26.7,68.79h8.31l9.11-23.44h31.75l9.29,23.44h24.73v-4.06c-3.57-.12-5.97-.78-7.2-1.97-1.15-1.15-2.79-4.35-4.92-9.6ZM397.43,599.19l13.11-32.98,13.35,32.98h-26.46Z"/>
    <path class="st0" d="M527.69,612.6l-27.5-30.52,35.56-36.3h-11.32l-35.56,36.3v-36.3h-29.72v3.75c4.35.29,7.26.88,8.74,1.78,1.89,1.15,2.83,3.92,2.83,8.31v69.84h18.15v-36.06l32.8,36.06h26.21v-3.75c-3.98-.49-7.24-1.58-9.78-3.26-2.54-1.68-6.01-4.96-10.4-9.84Z"/>
  </g>
  <g>
    <g>
      <path class="st2" d="M522.78,605.64c2.44.09,4.24.32,5.38.68,1.05.3,1.84.89,2.35,1.76.51.9.77,2.49.77,4.75v51.32h13.34v-61.49h-21.84v2.98Z"/>
      <path class="st2" d="M60.24,528.77c2.44.09,4.24.32,5.38.68,1.05.3,1.84.89,2.35,1.76.51.9.77,2.49.77,4.75v51.32h13.34v-61.49h-21.84v2.98Z"/>
      <path class="st2" d="M206.28,664.23v-6.7h-34.82v-54.87h-21.84v2.98c2.44.09,4.24.32,5.38.68,1.06.3,1.84.89,2.35,1.76.51.9.77,2.49.77,4.75v51.32h3.93v.08h44.23Z"/>
      <path class="st2" d="M17.09,642.05v6.37s0,.07,0,.11v.04h0c.02,5.47,1.14,9.46,3.38,11.97,2.17,2.41,5.47,3.62,9.9,3.62h111.96v-61.49h-21.84v2.98c2.44.09,4.24.32,5.38.68,1.06.3,1.84.89,2.35,1.76.51.9.77,2.49.77,4.75v44.7H33.05c-1.9,0-3.2-.81-3.89-2.44-.62-1.47-.93-4.2-.94-8.16v-15.38l-17.41,3.12v2.4c2.23.09,3.77.39,4.61.9,1.11.66,1.66,2.02,1.67,4.08Z"/>
      <path class="st2" d="M456.27,630.54c-4.13-2.38-9.45-3.57-15.96-3.57h-105l-.95,12.98h2.98c.84-3.38,1.91-5.53,3.21-6.47,1.42-.99,4.24-1.49,8.46-1.49h3.18l-.07-.04c11.33.02,84.28.04,84.71.04,3.95,0,6.84.56,8.68,1.67,3.59,2.14,5.38,6.04,5.38,11.71v12.16h-227.4v-30.35h-21.84v2.98c2.44.09,4.24.32,5.38.68,1.05.3,1.84.89,2.35,1.76.51.9.77,2.49.77,4.75v26.88h297.59v-.08h7.63v-61.49h-21.84v2.98c2.44.09,4.24.32,5.38.68,1.06.3,1.84.89,2.35,1.76.51.9.77,2.49.77,4.75v44.7h-37.44v-11.71c0-6.99-2.77-12.09-8.32-15.28Z"/>
      <path class="st2" d="M201.23,684.37c1.86,0,3.45-.65,4.77-1.94,1.29-1.32,1.94-2.91,1.94-4.77s-.65-3.48-1.94-4.77c-1.29-1.29-2.93-1.94-4.9-1.94-1.83,0-3.38.65-4.65,1.94-1.29,1.32-1.94,2.93-1.94,4.81s.65,3.4,1.94,4.69c1.32,1.32,2.91,1.98,4.77,1.98Z"/>
      <path class="st2" d="M221.58,682.43c1.29-1.32,1.94-2.91,1.94-4.77s-.65-3.48-1.94-4.77c-1.29-1.29-2.93-1.94-4.9-1.94-1.83,0-3.38.65-4.65,1.94-1.29,1.32-1.94,2.93-1.94,4.81s.65,3.4,1.94,4.69c1.32,1.32,2.91,1.98,4.77,1.98s3.45-.65,4.77-1.94Z"/>
      <path class="st2" d="M71.23,639.66c.96,0,4.2,0,12.71-.1h4.59v-4.36c0-2.29-.86-4.02-2.77-5.16-1.34-.77-3.16-1.15-5.36-1.15h-3.47v1.63c3.44,0,2.03.1,2.32.1,1.34,0,2.29.19,2.87.48,1.24.77,1.82,2.1,1.82,4.02v2.74h-12.71v1.82Z"/>
      <path class="st2" d="M71.23,626.42v4.13h4.61v-4.28c0-1.91.6-3.22,1.81-3.94.5-.31,1.95-.48,3.2-.54,1.26.06,2.61.21,2.99.48.44.31.8,1.04,1.08,2.18h1.01l-.32-4.37h-6.2c-2.19,0-3.98.4-5.37,1.2-1.87,1.08-2.8,2.79-2.8,5.15Z"/>
    </g>
    <path class="st2" d="M324.87,555.65c.51.9.77,2.49.77,4.75v26.88h13.34c5.34-.03,80.07.33,82.9,0h1.48v-18.04c0-6.99-2.77-12.09-8.32-15.28-4.13-2.38-9.45-3.57-15.96-3.57h-27.25v4.97c10.36,0,23.12.05,23.77.05,3.95,0,6.84.56,8.68,1.67,3.59,2.14,5.38,6.04,5.38,11.71v11.74h-70.68v-30.31h-21.84v2.98c2.44.09,4.24.32,5.38.68,1.06.3,1.84.89,2.35,1.76Z"/>
    <path class="st2" d="M244.43,565.17v6.37s0,.07,0,.11v.04h0c.02,5.47,1.14,9.46,3.38,11.97,2.17,2.41,5.47,3.62,9.9,3.62h64.05v-6.62h-61.38c-1.9,0-3.2-.81-3.89-2.44-.62-1.47-.93-4.2-.94-8.16v-15.38l-17.41,3.12v2.4c2.23.09,3.77.39,4.61.9,1.11.66,1.66,2.02,1.67,4.08Z"/>
    <path class="st2" d="M368.64,544.19c0-5.67,1.79-9.57,5.38-11.71,1.84-1.12,4.73-1.67,8.68-1.67.43,0-15.82-.02-4.5-.04l-.07.04h3.18c4.22,0,7.04.5,8.46,1.49,1.3.93,2.37,3.09,3.21,6.47h2.98l-.95-12.98h-15.79c-6.51,0-11.83,1.19-15.96,3.57-5.55,3.2-8.32,8.29-8.32,15.28v10.7h13.7v-11.16Z"/>
    <path class="st2" d="M537.79,553.95c-4.13-2.38-9.45-3.57-15.96-3.57h-28.31v2.98c3.07.06,5.15.42,6.24,1.09,1.51.87,2.26,2.92,2.26,6.15v20.05h-18.71v-30.27h-13.43c-5.15.09-10.54.34-12.26.54-5.49.63-9.72,2.16-12.71,4.57-3.86,3.1-5.79,7.42-5.79,12.93v18.86h30.69c-.15,4.43-.96,7.69-2.5,9.62-1.49,1.89-4.22,3.11-8.19,3.66v4.48c4-.22,7.06-.55,9.17-.98,2.87-.55,5.29-1.49,7.26-2.84,4.33-2.96,6.74-7.67,7.44-13.93h32.36v-28.44c0-1.66.18-2.68.54-3.07.51-.24,1.33-.36,2.44-.36,3.95,0,6.84.56,8.68,1.67,3.59,2.14,5.38,6.04,5.38,11.71v11.87h-13.92v6.62h13.92v.02h13.7v-18.06c0-6.99-2.77-12.09-8.32-15.28ZM469.89,577.26h-.01c0,1.67-.18,2.7-.54,3.09-.31.15-9.27.25-16.5.31v-11.78c0-8.86,4.39-13.29,13.16-13.29h3.9v21.68Z"/>
    <path class="st2" d="M104.5,542.94c1.29-1.32,1.94-2.91,1.94-4.77s-.65-3.48-1.94-4.77c-1.29-1.29-2.93-1.94-4.9-1.94-1.83,0-3.38.65-4.65,1.94-1.29,1.32-1.94,2.93-1.94,4.81s.65,3.4,1.94,4.69c1.32,1.32,2.91,1.98,4.77,1.98s3.45-.65,4.77-1.94Z"/>
    <path class="st2" d="M293.67,605.22c1.29-1.32,1.94-2.91,1.94-4.77s-.65-3.48-1.94-4.77c-1.29-1.29-2.93-1.94-4.9-1.94-1.83,0-3.38.65-4.65,1.94-1.29,1.32-1.94,2.93-1.94,4.81s.65,3.4,1.94,4.69c1.32,1.32,2.91,1.98,4.77,1.98s3.45-.65,4.77-1.94Z"/>
    <path class="st2" d="M201.22,580.41h-31.32v-21.82c0-1.66.18-2.68.54-3.07.51-.24,18.61-.36,19.72-.36,3.95,0,6.84.56,8.68,1.67,3.3,1.97,5.08,5.44,5.34,10.4h13.67c-.44-6.09-3.18-10.6-8.25-13.52-4.13-2.38-9.45-3.57-15.96-3.57h-45.59v2.98c3.07.06,5.15.42,6.24,1.09,1.51.87,2.26,2.92,2.26,6.15v20.05h-50.3v-30.27h-13.43v26.88h-.01s-.05,10.02-.05,10.02c-.15,4.43-.96,7.69-2.5,9.62-1.49,1.89-4.22,3.11-8.19,3.66v4.48c4-.22,7.06-.55,9.17-.98,2.87-.55,5.29-1.49,7.26-2.84,4.33-2.96,6.74-7.67,7.44-13.93h98.28v.02h13.7v-6.65h-16.7Z"/>
    <path class="st2" d="M43.53,580.41h-12.52v-21.82c0-1.66.18-2.68.54-3.07.51-.24-.2-.36.92-.36,3.95,0,6.84.56,8.68,1.67,3.3,1.97,5.08,5.44,5.34,10.4h13.67c-.44-6.09-3.18-10.6-8.25-13.52-4.13-2.38-9.45-3.57-15.96-3.57H9.17v2.98c3.07.06,5.15.42,6.24,1.09,1.51.87,2.26,2.92,2.26,6.15v20.05H7.65v6.62h38.88v.02h13.7v-6.65h-16.7Z"/>
  </g>
  <g>
    <path class="st2" d="M327.29,217.23c11.65,12.65,30.58,32.9,41.52,44.22,61.18,63.27,28.54,107.94,28.54,107.94,42.59-58.17,1.33-105.97-16.49-124.27-14.06-14.43-37.93-39.11-51.88-54.18-25.45-27.51-13.41-58.19-13.41-58.19-26.2,43.68,2.39,74.35,11.72,84.48"/>
    <path class="st2" d="M221.63,32.72c-2.94,6.9-4.79,14.83-5.21,22.22-.45,7.88-.65,17.23,1.69,24.96,2.44,8.04,8.59,15.19,14.25,21.18,11.98,12.68,26.72,22.36,38.95,34.79,6.11,6.21,11.44,13.18,16.01,20.62,7.12,11.6,8.6,26.52,8.6,26.52-.14,1.05-.29,2.11-.46,3.15-1.41,8.82-3.83,17.48-7.21,25.74-7.06,17.25-18.23,31.15-31.56,43.95-28.65,27.5-61.39,51.75-77.35,89.3-10.05,23.65-14.37,45.49-11.39,69.5,5.32,42.84,17.94,61.73,38.49,70.69,15.68,6.84,30.58,4.39,45.77-2.47,16.25-7.34,30.04-17.36,42.97-29.53,7.04-6.63,19.67-19.25,31.9-22.92-.49,1.03-4.34,9.18-5.15,11.24-2.55,6.49-10.32,18.68-6.07,23.57,12.34,14.21,35.74-22.47,40-27.88,5.38-6.82,11.6-13.82,19.77-17.24,9.13-3.81,17.78-1.07,27.36,1.36,15.16,3.86,31.06,2.61,45.23-4.59,12.98-6.59,24.8-13.81,33.72-43.36-2.9,8.78-23.7,22.08-47.91,23.12-15.88.68-30.82-4.55-46.08-9.79-19.95-6.85-38.56-14.73-59.63-7.39-17.59,6.13-30.71,19.88-39.44,35.95-.2.36-8.39,15.6-8.67,18.87,9.32-17.26,24.29-31.53,43.59-36.66,17.78-4.72,34.7,1.23,51.33,7.31-9.36,7.13-17.09,17.97-23.73,26.66-4.56,5.96-11.41,17.25-19.51,18.3-3.93.51-6.64-2.17-7.47-5.87-.34-1.51.29-6.29.84-7.37,0,0,0,0,0,0,1.09-2.45,2.08-4.26,3.15-6.6,5.59-1.37,11.05-.75,15.81,3.31-1.13-.97-.95-8.72-1.02-10.72-.07-1.91.28-9.4-1.23-10.7-13.6-11.63-33.82,5.92-43.67,14.93-11.94,10.92-23.08,21.07-37.26,28.96-13.68,7.61-28.98,14.51-44.95,11.63-17.61-3.18-29.51-14.22-37.07-30.13-3.6-7.57-6.01-15.53-7.75-23.67,0-1.36.01-2.36.05-3.54.15-4.68.61-9.34,1.36-13.96,2.91-17.91,10.19-34.88,20.02-50.05,21.58-33.28,56.07-53.81,80.81-84.11,12.71-15.57,21.16-34.59,24.2-54.43,4.82-31.36.62-50.36-5.42-64.56-5.39-12.68-14.24-23.48-24.21-32.82-9.54-8.94-20.16-16.66-29.66-25.65-7.77-7.35-16.17-16.16-19.15-26.66,1.07-3.46,2.62-6.74,4.79-9.58,3.97-5.22,9.18-9.57,13.9-14.11l1.06-21.51c-6.22,5.97-13.95,11.88-17.41,20.01"/>
    <path class="st2" d="M272.74,297.02c-18.96,13.54-30.78,21.18-39.4,27.09-8.62,5.91-27.64,16.29-26.11,47.53,1.23,25.12,1.73,29.06,1.73,29.06,0,0,13.3-2.95,27.83-12.31,14.53-9.36,48.52-35.47,63.05-48.27,14.53-12.81,26.93-27.83,47.45-17.86,0,0-8.78,4.31-18.64,13.67-9.85,9.36-46.73,45.43-61.81,56.15-15.52,11.03-33.98,21.21-65.76,19.46-25.89-1.43-50.01-23.93-59.35-48.02-11.99-30.92-5.53-70.44,3.27-88.91,0,0-19.27,28.57-14.59,77.82,4.68,49.25,45.82,76.75,70.19,80.04,23.04,3.11,46.79,0,77.58-25.86,30.79-25.86,53.96-62.8,75.99-64.28,0,0,4.79-19.95-1.86-34.48-6.65-14.53-23.15-15.76-42.11,1.48-18.96,17.24-68.37,61.06-98.17,68.45,0,0-1.57-15.01,10-24.12,11.58-9.11,40.14-28.07,50.49-35.95,10.34-7.88,39.15-27.21,33.49-73.88,0,0,.44,29.13-33.25,53.2"/>
    <rect class="st2" x="285.53" y="473.58" width="22.61" height="22.61" transform="translate(-255.92 351.87) rotate(-45)"/>
    <rect class="st2" x="285.53" y="504.16" width="22.61" height="22.61" transform="translate(-277.54 360.82) rotate(-45)"/>
    <path class="st2" d="M293.67,235.33c11.88,12.44,31.18,32.33,42.34,43.44,62.36,62.12,30.55,107.39,30.55,107.39,41.49-58.95-.65-105.97-18.81-123.94-14.32-14.17-38.65-38.4-52.88-53.21-25.96-27.03-14.49-57.93-14.49-57.93-25.38,44.16,3.78,74.29,13.29,84.25"/>
  </g>
</svg>