<?xml version="1.0" encoding="UTF-8"?>
<svg id="Layer_1" xmlns="http://www.w3.org/2000/svg" version="1.1" viewBox="0 0 494.47 695.65">
  <!-- Generator: Adobe Illustrator 30.1.0, SVG Export Plug-In . SVG Version: 2.1.1 Build 136)  -->
  <defs>
    <style>
      .st0 {
        fill: #c6c5c7;
      }

      .st1 {
        display: none;
      }

      .st2 {
        fill: #ffdd2e;
      }
    </style>
  </defs>
  <g class="st1">
    <path class="st0" d="M-560.07,622.08c-.82-1.35-1.23-3.67-1.23-6.95v-69.34h-16.92l-24.43,61.22-25.97-61.22h-31.5v4.06c3.32.12,5.76.43,7.32.92,1.44.41,2.5,1.21,3.2,2.4.7,1.23,1.05,3.38,1.05,6.46v69.84h8.06v-68.05l28.73,68.05h7.81l24.49-60.24v60.24h29.72v-4.06c-3.08-.04-5.37-.29-6.89-.74-1.6-.45-2.75-1.31-3.45-2.58Z"/>
    <path class="st0" d="M-502.78,544.24c-10.99,0-19.91,3.14-26.77,9.41-8.49,7.75-12.74,19.07-12.74,33.96,0,13.29,3.4,23.75,10.21,31.38,7.14,8,17.04,12,29.72,12,11.08,0,20.06-3.14,26.95-9.41,8.66-7.88,12.98-19.22,12.98-34.03,0-13.13-3.47-23.55-10.4-31.26-7.18-8.04-17.17-12.06-29.97-12.06ZM-502.47,624.17c-13.45,0-20.18-12.16-20.18-36.49,0-12.51,1.72-21.8,5.17-27.87,3.32-5.82,8.45-8.74,15.38-8.74s11.53,2.97,14.77,8.92c3.53,6.4,5.29,15.57,5.29,27.5,0,24.45-6.81,36.67-20.43,36.67Z"/>
    <path class="st0" d="M-379.54,603.25l-20.43-57.47h-25.41v3.75c3.57.29,6.17,1.19,7.81,2.71,1.68,1.6,3.36,4.66,5.05,9.17l3.26,8.8-11.38,33.04-20.37-57.47h-25.47v3.75c3.61.29,6.23,1.19,7.88,2.71,1.68,1.56,3.34,4.61,4.98,9.17l24.92,69.04h7.81l16.43-47.13,16.86,47.13h7.81l29.23-84.66h-9.29l-19.69,57.47Z"/>
    <path class="st0" d="M-276.11,612.6l-27.5-30.52,35.56-36.3h-11.32l-35.56,36.3v-36.3h-29.72v3.75c4.35.29,7.26.88,8.74,1.78,1.89,1.15,2.83,3.92,2.83,8.31v69.84h18.15v-36.06l32.8,36.06h26.21v-3.75c-3.98-.49-7.24-1.58-9.78-3.26-2.54-1.68-6.01-4.96-10.4-9.84Z"/>
    <path class="st0" d="M-192.98,616.54c-3.16,4.06-7.06,6.09-11.69,6.09h-13.6c-5.05,0-8-.39-8.86-1.17-.82-.7-1.23-2.67-1.23-5.91v-26.4h21.17v-6.83h-21.17v-23.69c0-2.87.29-4.61.86-5.23.45-.53,1.52-.8,3.2-.8h14.83c6.15,0,10.21.7,12.18,2.09,1.76,1.27,3.16,4.18,4.18,8.74h4.06l-1.29-17.66h-67.74v3.81c4.31.21,7.18.76,8.61,1.66,1.97,1.19,2.95,4,2.95,8.43v69.77h57.96l3.26-20.67h-3.75c-1.23,3.4-2.54,5.99-3.94,7.75Z"/>
    <path class="st0" d="M-119.64,585.1c3.49-1.52,6.07-3.2,7.75-5.05,2.75-3.04,4.12-7.12,4.12-12.24,0-8.94-3.98-15.12-11.94-18.52-5.46-2.34-12.98-3.51-22.58-3.51h-36.55v4c4.27.12,7.14.62,8.61,1.48,1.97,1.15,2.95,3.94,2.95,8.37v69.84h28.49c10.17,0,18.25-1.72,24.24-5.17,7.18-4.1,10.77-10.58,10.77-19.44,0-5.7-1.64-10.23-4.92-13.6-2.34-2.38-5.99-4.43-10.95-6.15ZM-149.11,557.72c0-2.63.39-4.16,1.17-4.61.66-.37,1.97-.55,3.94-.55,6.19,0,10.62,1.19,13.29,3.57,2.71,2.38,4.06,6.09,4.06,11.14,0,4.51-1.17,8.06-3.51,10.64-2.67,2.95-6.54,4.43-11.63,4.43h-7.32v-24.61ZM-128.5,619.49c-2.87,2.09-7.77,3.14-14.71,3.14-2.34,0-3.88-.35-4.61-1.05-.86-.74-1.29-2.4-1.29-4.98v-27.44h7.08c12.76,0,19.14,5.7,19.14,17.11,0,6.11-1.87,10.52-5.6,13.23Z"/>
    <path class="st0" d="M12.22,613.83l-27.44-68.05h-25.72v4.06c3.98.08,6.69.41,8.12.98,1.64.66,2.46,1.72,2.46,3.2,0,1.35-.59,3.57-1.78,6.65l-26.7,68.79h8.31l9.11-23.44H-9.68l9.29,23.44h24.73v-4.06c-3.57-.12-5.97-.78-7.2-1.97-1.15-1.15-2.79-4.35-4.92-9.6ZM-38.91,599.19l13.11-32.98,13.35,32.98h-26.46Z"/>
    <path class="st0" d="M83.78,619.68c-2.38,1.97-5.99,2.95-10.83,2.95h-11.32c-4.22,0-6.85-.45-7.88-1.35-.82-.74-1.23-2.13-1.23-4.18v-71.31h-29.72v4.06c4.18.08,7.01.55,8.49,1.42,2.05,1.23,3.08,4.02,3.08,8.37v69.84h56.48l3.75-21.72h-3.75c-2.46,6.11-4.82,10.09-7.08,11.94Z"/>
    <path class="st0" d="M179.58,622.08c-.78-1.35-1.17-3.67-1.17-6.95v-69.34h-18.15v36.55h-32v-36.55h-29.72v4.06c4.18.08,7.01.55,8.49,1.42,2.05,1.23,3.08,4.02,3.08,8.37v69.84h18.15v-40.3h32v40.3h29.72v-4.06c-3.12-.04-5.44-.29-6.95-.74-1.6-.45-2.75-1.31-3.45-2.58Z"/>
    <path class="st0" d="M191.83,549.84c3.32.12,5.76.43,7.32.92,1.44.41,2.5,1.21,3.2,2.4.7,1.23,1.05,3.38,1.05,6.46v69.84h18.15v-83.68h-29.72v4.06Z"/>
    <path class="st0" d="M284.43,622.08c-.74-1.31-1.11-3.63-1.11-6.95v-23.69l29.23-45.65h-10.83l-22.95,35.26-24.67-35.26h-25.72v4.06c3.61.04,6.44.9,8.49,2.58,2.22,1.76,5.35,5.6,9.41,11.51l18.89,27.5v38.03h29.72v-4.06c-3.24-.08-5.64-.37-7.2-.86-1.48-.41-2.56-1.23-3.26-2.46Z"/>
    <path class="st0" d="M379.74,613.83l-27.44-68.05h-25.72v4.06c3.98.08,6.69.41,8.12.98,1.64.66,2.46,1.72,2.46,3.2,0,1.35-.59,3.57-1.78,6.65l-26.7,68.79h8.31l9.11-23.44h31.75l9.29,23.44h24.73v-4.06c-3.57-.12-5.97-.78-7.2-1.97-1.15-1.15-2.79-4.35-4.92-9.6ZM328.61,599.19l13.11-32.98,13.35,32.98h-26.46Z"/>
    <path class="st0" d="M458.87,612.6l-27.5-30.52,35.56-36.3h-11.32l-35.56,36.3v-36.3h-29.72v3.75c4.35.29,7.26.88,8.74,1.78,1.89,1.15,2.83,3.92,2.83,8.31v69.84h18.15v-36.06l32.8,36.06h26.21v-3.75c-3.98-.49-7.24-1.58-9.78-3.26-2.54-1.68-6.01-4.96-10.4-9.84Z"/>
  </g>
  <g>
    <path class="st2" d="M264.39,273.61c14.87,16.14,39.01,41.97,52.97,56.41,78.05,80.71,36.41,137.7,36.41,137.7,54.33-74.21,1.69-135.18-21.04-158.53-17.93-18.41-48.39-49.89-66.18-69.12-32.47-35.09-17.11-74.23-17.11-74.23-33.42,55.72,3.05,94.85,14.95,107.77"/>
    <path class="st2" d="M129.6,38.24c-3.75,8.8-6.11,18.91-6.64,28.35-.57,10.05-.83,21.97,2.15,31.84,3.11,10.26,10.96,19.38,18.18,27.03,15.29,16.18,34.08,28.53,49.69,44.38,7.8,7.92,14.59,16.81,20.42,26.31,9.08,14.8,10.97,33.83,10.97,33.83-.18,1.34-.37,2.69-.58,4.02-1.79,11.25-4.89,22.29-9.2,32.84-9.01,22.01-23.26,39.74-40.26,56.06-36.55,35.08-78.32,66.01-98.67,113.92-12.82,30.17-18.33,58.03-14.53,88.66,6.78,54.65,22.88,78.75,49.11,90.18,20,8.72,39.02,5.6,58.39-3.15,20.73-9.37,38.32-22.15,54.81-37.67,8.98-8.45,25.09-24.56,40.7-29.23-.62,1.32-5.54,11.71-6.57,14.34-3.26,8.28-13.16,23.84-7.75,30.07,15.75,18.12,45.6-28.67,51.03-35.56,6.86-8.7,14.79-17.63,25.22-21.99,11.64-4.86,22.68-1.37,34.9,1.74,19.33,4.92,39.62,3.33,57.69-5.85,16.55-8.4,31.63-17.62,43.01-55.32-3.7,11.21-30.23,28.17-61.12,29.5-20.26.87-39.31-5.81-58.78-12.48-25.45-8.73-49.2-18.79-76.07-9.43-22.43,7.82-39.17,25.36-50.32,45.86-.25.46-10.7,19.9-11.06,24.07,11.9-22.02,30.99-40.22,55.61-46.77,22.69-6.03,44.26,1.57,65.49,9.33-11.95,9.09-21.8,22.93-30.27,34.01-5.81,7.6-14.55,22-24.89,23.34-5.01.65-8.47-2.76-9.52-7.49-.43-1.92.37-8.02,1.08-9.41,0,0,0,0,0,0,1.39-3.12,2.66-5.44,4.02-8.42,7.13-1.74,14.1-.96,20.16,4.23-1.44-1.23-1.21-11.12-1.3-13.67-.08-2.44.35-12-1.57-13.65-17.35-14.83-43.15,7.56-55.7,19.04-15.23,13.93-29.44,26.88-47.54,36.95-17.45,9.71-36.97,18.51-57.34,14.83-22.46-4.06-37.64-18.15-47.29-38.44-4.59-9.66-7.66-19.81-9.89-30.2,0-1.73.02-3.02.07-4.52.2-5.97.78-11.91,1.74-17.8,3.72-22.85,12.99-44.49,25.55-63.85,27.53-42.45,71.53-68.64,103.08-107.3,16.21-19.86,26.99-44.13,30.87-69.44,6.15-40.01.79-64.24-6.91-82.36-6.87-16.17-18.16-29.95-30.88-41.87-12.17-11.41-25.72-21.26-37.84-32.72-9.91-9.38-20.63-20.62-24.43-34.01,1.37-4.41,3.35-8.6,6.11-12.23,5.07-6.66,11.72-12.21,17.73-17.99l1.35-27.44c-7.93,7.62-17.79,15.16-22.2,25.53"/>
    <path class="st2" d="M194.8,375.4c-24.19,17.28-39.27,27.02-50.27,34.56-11,7.54-35.26,20.78-33.3,60.64,1.57,32.04,2.2,37.07,2.2,37.07,0,0,16.97-3.77,35.5-15.71,18.54-11.94,61.89-45.24,80.43-61.58,18.54-16.34,34.35-35.5,60.53-22.78,0,0-11.21,5.5-23.77,17.43-12.57,11.94-59.61,57.95-78.86,71.63-19.79,14.07-43.35,27.06-83.89,24.82-33.03-1.83-63.8-30.53-75.72-61.26-15.29-39.44-7.06-89.86,4.17-113.42,0,0-24.59,36.44-18.62,99.28,5.97,62.83,58.45,97.92,89.54,102.1,29.39,3.96,59.69,0,98.96-32.99,39.27-32.99,68.84-80.11,96.94-82,0,0,6.11-25.45-2.37-43.98-8.48-18.54-29.54-20.1-53.72,1.89-24.19,21.99-87.21,77.89-125.23,87.32,0,0-2.01-19.14,12.76-30.77,14.77-11.62,51.21-35.81,64.4-45.87,13.2-10.05,49.95-34.71,42.73-94.25,0,0,.57,37.16-42.41,67.86"/>
    <rect class="st2" x="211.11" y="600.65" width="28.84" height="28.84" transform="translate(-368.84 339.58) rotate(-45)"/>
    <rect class="st2" x="211.11" y="639.66" width="28.84" height="28.84" transform="translate(-396.42 351) rotate(-45)"/>
    <path class="st2" d="M221.5,296.7c15.16,15.86,39.78,41.24,54.01,55.41,79.55,79.24,38.97,137,38.97,137,52.93-75.21-.83-135.19-23.99-158.11-18.27-18.08-49.31-48.98-67.46-67.88-33.11-34.48-18.49-73.9-18.49-73.9-32.38,56.34,4.82,94.77,16.96,107.47"/>
  </g>
</svg>